<svg width="218" height="164" viewBox="0 0 218 164" fill="none" xmlns="http://www.w3.org/2000/svg">
<g filter="url(#filter0_i_27_405)">
<path d="M100.033 76.0304L119.808 101.37C120.403 102.132 120.368 103.209 119.725 103.931L104.362 121.185C103.525 122.125 102.038 122.067 101.276 121.065L44.4384 46.245C43.438 44.9281 44.3772 43.0351 46.031 43.0351H82.9632C83.5593 43.0351 84.1244 43.3011 84.5043 43.7604L94.6066 55.9744M100.033 76.0304L94.6066 55.9744M100.033 76.0304L75.3125 64.6438M94.6066 55.9744L116.105 62.6227C117.443 63.0364 118.781 61.9832 118.692 60.586L117.881 47.7386C117.761 45.8465 120.096 44.8655 121.364 46.275L144.958 72.5049C145.029 72.584 145.001 72.7097 144.904 72.7517V72.7517C144.843 72.7779 144.772 72.7623 144.727 72.7129L121.782 47.2622C120.516 45.8589 118.19 46.8307 118.299 48.717L119.01 60.9877C119.09 62.3813 117.755 63.4268 116.421 63.0136L94.9081 56.3474L94.6066 55.9744ZM94.6066 55.9744L109.982 74.9952L126.057 94.9854C126.091 95.027 126.141 95.0511 126.195 95.0511V95.0511C126.342 95.0511 126.424 94.8798 126.332 94.7647L95.2096 56.1609L94.6066 55.9744ZM163.33 46.0132L152.786 64.8199C152.12 66.0081 150.487 66.1972 149.567 65.1925L132.344 46.3859C131.169 45.1028 132.079 43.0351 133.819 43.0351H161.586C163.114 43.0351 164.078 44.6801 163.33 46.0132Z" stroke="#F69809" stroke-width="7"/>
</g>
<defs>
<filter id="filter0_i_27_405" x="40.5209" y="39.5352" width="126.573" height="89.8198" filterUnits="userSpaceOnUse" color-interpolation-filters="sRGB">
<feFlood flood-opacity="0" result="BackgroundImageFix"/>
<feBlend mode="normal" in="SourceGraphic" in2="BackgroundImageFix" result="shape"/>
<feColorMatrix in="SourceAlpha" type="matrix" values="0 0 0 0 0 0 0 0 0 0 0 0 0 0 0 0 0 0 127 0" result="hardAlpha"/>
<feOffset dy="4"/>
<feGaussianBlur stdDeviation="2"/>
<feComposite in2="hardAlpha" operator="arithmetic" k2="-1" k3="1"/>
<feColorMatrix type="matrix" values="0 0 0 0 1 0 0 0 0 1 0 0 0 0 1 0 0 0 1 0"/>
<feBlend mode="normal" in2="shape" result="effect1_innerShadow_27_405"/>
</filter>
</defs>
</svg>
